<?xml version="1.0" standalone="no"?><!DOCTYPE svg PUBLIC "-//W3C//DTD SVG 1.1//EN" "http://www.w3.org/Graphics/SVG/1.1/DTD/svg11.dtd"><svg t="1540277926174" class="icon" style="" viewBox="0 0 1024 1024" version="1.1" xmlns="http://www.w3.org/2000/svg" p-id="1470" xmlns:xlink="http://www.w3.org/1999/xlink" width="48" height="48"><defs><style type="text/css"></style></defs><path d="M272.571429 357.142857l0 566.285714-188.571429 0 0-566.285714 188.571429 0zm12-174.857143q0.571429 41.714286-28.857143 69.714286t-77.428571 28l-1.142857 0q-46.857143 0-75.428571-28t-28.571429-69.714286q0-42.285714 29.428571-70t76.857143-27.714286 76 27.714286 29.142857 70zm666.285714 416.571429l0 324.571429-188 0 0-302.857143q0-60-23.142857-94t-72.285714-34q-36 0-60.285714 19.714286t-36.285714 48.857143q-6.285714 17.142857-6.285714 46.285714l0 316-188 0q1.142857-228 1.142857-369.714286t-0.571429-169.142857l-0.571429-27.428571 188 0 0 82.285714-1.142857 0q11.428571-18.285714 23.428571-32t32.285714-29.714286 49.714286-24.857143 65.428571-8.857143q97.714286 0 157.142857 64.857143t59.428571 190z" p-id="1471" fill="#2c2c2c"></path></svg>